PathFileType	4	(X/Y/Z)	D:\TRACE\spotREDO_2-26-24\spot_Both_Motion_3_6-platform.trc
DataRate	CameraRate	NumFrames	NumMarkers	Units	OrigDataRate	OrigDataStartFrame	OrigNumFrames
100.00	100.00	      73	5	mm	100.00	5251	      7000
Frame#	Time	Left_Front			Right_Front			Left_Aft			Right_Aft			Post			
		X1	Y1	Z1	X2	Y2	Z2	X3	Y3	Z3	X4	Y4	Z4	X5	Y5	Z5	

5251	52.500	-716.02197	-9.45511	-577.13544	698.59991	0.20333	-492.25620	-787.91364	10.05992	641.26508	781.42438	16.79547	646.56482	-22.17570	613.39172	-989.55072	
5252	52.510	-716.05292	-9.39288	-577.12543	698.64893	0.21373	-492.29013	-787.90607	9.95542	641.24109	781.37079	16.67116	646.58057	-22.22274	613.56921	-989.34808	
5253	52.520	-716.08868	-9.27603	-577.10596	698.64587	0.29256	-492.21338	-787.90167	9.87916	641.32068	781.44269	16.56692	646.61096	-22.43330	613.87640	-989.09796	
5254	52.530	-716.08350	-9.18082	-577.06097	698.67126	0.33957	-492.32230	-787.85559	9.82213	641.26379	781.46088	16.49643	646.61963	-22.28819	614.00134	-988.87585	
5255	52.540	-716.13776	-9.05500	-577.04053	698.62671	0.49408	-492.25485	-787.89355	9.77172	641.34302	781.45099	16.45517	646.61487	-22.16554	614.11505	-988.75781	
5256	52.550	-716.08331	-8.96567	-577.04578	698.69751	0.53723	-492.26547	-787.79987	9.58215	641.34460	781.52246	16.30440	646.63251	-22.07120	614.18970	-988.71362	
5257	52.560	-716.10431	-8.94724	-576.96417	698.74768	0.45900	-492.15146	-787.88416	9.42370	641.36322	781.49329	16.23532	646.65277	-22.02010	614.29779	-988.72717	
5258	52.570	-716.12378	-8.96696	-576.85632	698.76349	0.53129	-492.15778	-787.85504	9.29754	641.33990	781.45050	16.18009	646.61438	-22.01729	614.40521	-988.76184	
5259	52.580	-716.09039	-8.76519	-576.89166	698.86298	0.58837	-492.03949	-787.87115	9.15634	641.40460	781.55237	16.04099	646.64569	-22.03873	614.56268	-988.75751	
5260	52.590	-716.10059	-8.65033	-576.87122	698.93494	0.64628	-491.94122	-787.85895	9.10985	641.40674	781.64337	15.99258	646.64764	-21.91278	614.68896	-988.71722	
5261	52.600	-716.09814	-8.58562	-576.87964	698.91437	0.64404	-491.95459	-787.76923	9.16632	641.51001	781.54382	15.92904	646.67444	-21.95948	614.79236	-988.65076	
5262	52.610	-716.02124	-8.73710	-576.81689	698.90997	0.72442	-491.98068	-787.88214	8.99622	641.43866	781.65887	15.90508	646.67834	-21.95238	614.84900	-988.54120	
5263	52.620	-716.05518	-8.56627	-576.96625	698.90729	0.74020	-491.92703	-787.88531	8.97300	641.44690	781.51892	15.87118	646.73627	-21.97195	615.03046	-988.34454	
5264	52.630	-715.99872	-8.58990	-576.96826	698.86078	0.77734	-491.92996	-787.82776	8.91830	641.45062	781.54456	15.84261	646.71735	-21.97051	615.06390	-988.21613	
5265	52.640	-715.98206	-8.56910	-576.98138	698.92249	0.81837	-491.90909	-787.85443	8.88610	641.47748	781.55768	15.83481	646.69745	-21.95223	615.10004	-988.13458	
5266	52.650	-715.99884	-8.55689	-576.94952	698.88586	0.79210	-491.92487	-787.85120	8.92292	641.43304	781.56989	15.79724	646.71259	-21.92633	615.09332	-988.06866	
5267	52.660	-716.11633	-8.47260	-576.89526	698.92206	0.77188	-491.95126	-787.83496	8.85399	641.46130	781.60577	15.77634	646.71771	-21.93925	615.09589	-988.03265	
5268	52.670	-716.31677	-8.37807	-576.90558	698.91125	0.83339	-491.89975	-787.86438	8.94226	641.43091	781.58856	15.89401	646.74670	-21.93939	615.06433	-988.03058	
5269	52.680	-716.28937	-8.44702	-576.87366	698.90588	0.68432	-491.94620	-787.84064	9.08932	641.44916	781.56433	15.85394	646.68713	-21.91407	614.96625	-988.09784	
5270	52.690	-716.33899	-8.45022	-576.92719	698.89398	0.64481	-491.94345	-787.83881	8.95560	641.44983	781.58368	15.78860	646.69928	-21.90801	614.93158	-988.26227	
5271	52.700	-716.34467	-8.42991	-576.93799	698.85602	0.64874	-491.98264	-787.89557	8.90440	641.40125	781.55145	15.92649	646.70392	-21.87573	614.81622	-988.43677	
5272	52.710	-716.30664	-8.41283	-576.92169	698.91486	0.69764	-491.94177	-787.87512	9.02105	641.43890	781.55963	15.78760	646.67621	-21.87517	614.75549	-988.76044	
5273	52.720	-716.29633	-8.51718	-576.96918	698.86603	0.65605	-491.99304	-787.87579	8.97571	641.48132	781.54919	15.86492	646.68890	-21.97812	614.75879	-988.86664	
5274	52.730	-716.32556	-8.49638	-576.94287	698.86023	0.60836	-492.00516	-787.86249	9.06286	641.40582	781.61230	15.99730	646.70081	-21.92014	614.78271	-989.04053	
5275	52.740	-716.33801	-8.47750	-576.95374	698.87390	0.65221	-491.94830	-787.88428	9.14325	641.43237	781.52472	15.97060	646.64581	-22.00721	614.71234	-989.07281	
5276	52.750	-716.29767	-8.54032	-576.95837	698.87000	0.63766	-491.93274	-787.80957	9.16879	641.41119	781.59680	15.99459	646.64752	-21.92232	614.64453	-988.84479	
5277	52.760	-716.31366	-8.66850	-577.03033	698.69135	0.56869	-492.23157	-787.85852	9.12099	641.40375	781.55542	16.03074	646.60498	-21.95524	614.41553	-988.72888	
5278	52.770	-716.23346	-8.88900	-577.15765	698.72485	0.48584	-492.29172	-787.84436	9.31313	641.32434	781.49274	16.11619	646.54071	-21.99774	614.22693	-988.65137	
5279	52.780	-716.16412	-9.05819	-577.24194	698.73395	0.36869	-492.39386	-787.85406	9.62122	641.26080	781.49438	16.34854	646.61676	-21.98468	614.04541	-988.48621	
5280	52.790	-716.17261	-9.13019	-577.23090	698.74030	0.29054	-492.39752	-787.86426	9.70100	641.21765	781.56824	16.58096	646.66241	-21.88451	613.90314	-988.41998	
5281	52.800	-716.06085	-9.29491	-577.30634	698.89136	0.13522	-492.21298	-787.78082	10.06692	641.26965	781.64075	16.82512	646.62238	-21.85351	613.44238	-988.60596	
5282	52.810	-716.03790	-9.48379	-577.26947	698.88647	-0.04890	-492.27505	-787.71741	9.98269	641.11188	781.63483	16.93836	646.57013	-21.94516	613.20776	-989.12262	
5283	52.820	-716.01575	-9.70489	-577.27325	698.90607	-0.27945	-492.41800	-787.70245	10.04573	641.04303	781.63739	17.06797	646.51105	-21.87693	612.83093	-989.72363	
5284	52.830	-716.01648	-9.83631	-577.30579	698.97296	-0.76550	-492.42899	-787.60767	10.27348	641.04199	781.77350	17.28833	646.43689	-21.27670	612.35413	-990.03662	
5285	52.840	-715.99902	-9.95980	-577.29395	699.05017	-0.86487	-492.40036	-787.57208	10.51788	640.96558	781.82770	17.58931	646.36340	-21.48522	611.89581	-990.58142	
5286	52.850	-715.99432	-10.11822	-577.27942	699.04578	-1.02151	-492.42059	-787.28809	10.83291	640.91998	781.87799	17.81619	646.35266	-21.80116	611.71875	-991.28552	
5287	52.860	-715.85413	-10.39916	-577.30670	699.03259	-1.19227	-492.42087	-787.28363	11.02414	640.89447	781.91980	17.99351	646.21820	-21.62122	611.21558	-991.87341	
5288	52.870	-715.84448	-10.75135	-577.44250	698.90417	-1.20304	-492.59109	-787.50098	11.16902	640.71637	781.99469	18.21609	646.13141	-21.26733	610.90833	-992.16431	
5289	52.880	-715.85284	-11.05038	-577.58551	698.91119	-1.34254	-492.69080	-787.52130	11.38590	640.71112	782.00964	18.37393	646.09882	-21.29589	610.63788	-992.37866	
5290	52.890	-715.83282	-11.26690	-577.70129	699.02563	-1.53800	-492.75412	-787.65918	11.91152	640.59033	781.86987	18.58579	646.01898	-21.34327	610.42896	-992.40918	
5291	52.900	-715.86230	-11.42476	-577.71509	699.06268	-1.72690	-492.88492	-787.67548	12.20598	640.44019	781.87683	18.85635	645.97852	-21.34409	610.14355	-992.39294	
5292	52.910	-715.91272	-11.57337	-577.82666	699.24701	-2.24017	-492.82565	-787.51849	12.55213	640.38177	781.87762	19.07918	645.88861	-21.17070	609.41986	-992.34973	
5293	52.920	-715.73767	-11.91595	-577.91870	699.30817	-2.40051	-492.89023	-787.23187	12.66324	640.49524	782.00421	19.33614	645.76691	-21.08762	608.71783	-992.38330	
5294	52.930	-715.54144	-12.33112	-577.93567	699.34595	-2.57959	-493.00058	-787.14789	12.87155	640.44714	781.93896	19.54902	645.61383	-21.03972	608.49799	-992.39850	
5295	52.940	-715.44263	-12.52969	-578.00177	699.22498	-2.63598	-493.20764	-787.09497	13.11975	640.32281	782.18475	20.10269	645.61328	-21.01595	608.05200	-992.74213	
5296	52.950	-715.34845	-12.86410	-578.04987	699.29803	-2.75520	-493.19302	-787.00751	13.35486	640.27759	782.23608	20.52305	645.62286	-21.25608	607.67590	-993.14850	
5297	52.960	-715.29578	-13.20818	-578.09998	699.37164	-3.07713	-493.34583	-786.98730	13.62671	640.19135	782.36774	20.81937	645.42798	-21.30209	606.86798	-994.20575	
5298	52.970	-715.19543	-13.55774	-578.14520	699.47784	-3.33625	-493.34760	-786.95831	13.93892	640.15521	782.09924	21.16496	645.30255	-20.97565	606.43665	-994.96411	
5299	52.980	-715.08087	-13.92168	-578.24286	699.63983	-3.94526	-493.30234	-787.01105	14.24868	640.07367	782.15167	21.34122	645.12079	-21.12246	605.95892	-995.67102	
5300	52.990	-715.02277	-14.19604	-578.34027	699.67419	-4.17518	-493.45050	-786.78839	14.68611	640.01538	782.28149	21.60663	645.14569	-20.71416	605.37024	-996.31787	
5301	53.000	-715.08411	-14.40253	-578.37775	699.71600	-4.50485	-493.65698	-786.75616	15.11532	639.88690	782.45056	21.91012	645.01733	-20.43699	604.55945	-997.05438	
5302	53.010	-714.93823	-14.65132	-578.48193	699.81940	-4.79077	-493.52380	-786.57941	15.61336	639.67999	782.85632	22.35452	645.19177	-20.46140	604.08575	-997.21014	
5303	53.020	-714.76855	-15.07190	-578.63342	699.83228	-4.97626	-493.61942	-786.56476	15.80155	639.62976	782.94714	22.79613	644.99237	-20.52082	603.47742	-997.42230	
5304	53.030	-714.65094	-15.58806	-578.78381	700.06134	-5.52764	-493.80420	-786.43860	16.17031	639.60181	783.02759	23.30657	644.87842	-20.40232	602.79669	-997.48383	
5305	53.040	-714.72900	-15.90834	-578.81140	700.08472	-5.82573	-493.95901	-786.40564	16.37659	639.42865	782.83533	23.73127	644.77191	-20.16743	602.25085	-997.69000	
5306	53.050	-714.51807	-16.51729	-578.91315	699.99554	-5.98905	-494.22519	-786.18457	16.89676	639.21973	783.08606	24.01022	644.60541	-20.16651	601.58893	-997.63782	
5307	53.060	-714.32330	-16.93021	-578.99500	700.24750	-6.33221	-494.14288	-786.04901	17.49570	639.09296	783.11292	24.35786	644.62878	-20.12115	600.76697	-998.07666	
5308	53.070	-714.30511	-17.18415	-579.16803	700.39502	-6.62381	-494.26544	-785.95874	17.97482	639.00641	783.26471	24.90739	644.39758	-19.61331	600.04712	-998.75854	
5309	53.080	-714.11426	-17.62859	-579.34204	700.72473	-7.21150	-494.21759	-786.11206	18.28476	638.86444	783.60748	25.39099	644.25275	-19.74972	599.49524	-999.57599	
5310	53.090	-713.89972	-18.20293	-579.43640	700.99854	-7.47940	-494.28992	-786.00140	18.62088	638.69794	783.76715	25.73294	644.05804	-19.58293	598.71521	-1000.26855	
5311	53.100	-713.67950	-18.51208	-579.57971	700.90814	-7.80897	-494.65427	-785.56238	19.12106	638.62079	784.00232	25.95590	644.00397	-19.22538	597.94092	-1001.12848	
5312	53.110	-713.59760	-18.80060	-579.54114	701.26605	-8.16948	-494.57751	-785.48871	19.62688	638.41022	783.93109	26.52243	644.00781	-19.66279	597.19373	-1002.12756	
5313	53.120	-713.42407	-19.18839	-579.71283	701.63708	-8.69332	-494.48773	-785.42981	20.19308	638.30957	783.75146	26.92084	643.92303	-19.16711	596.49170	-1002.65894	
5314	53.130	-713.24609	-19.67531	-579.81934	701.63422	-9.00938	-494.68677	-785.25238	20.54181	638.20728	784.33002	27.68918	643.60645	-18.74239	595.73663	-1003.35626	
5315	53.140	-713.12073	-20.18154	-579.82062	701.87689	-9.35085	-494.80045	-784.92749	20.93797	638.11029	784.44946	28.29185	643.43994	-18.76699	594.67603	-1004.01801	
5316	53.150	-712.76581	-20.92934	-579.88525	702.04938	-9.78654	-494.96121	-784.62225	21.43616	637.94977	784.46161	28.44986	643.29449	-18.53325	594.04761	-1004.39563	
5317	53.160	-712.67755	-21.29905	-579.91425	702.23413	-10.22649	-494.98105	-784.41174	21.77975	637.81580	784.47668	28.65414	643.24591	-18.16658	593.56287	-1004.62317	
5318	53.170	-712.35559	-21.75465	-580.09357	702.72614	-10.86159	-495.18185	-784.30731	22.81768	637.80969	784.87848	29.19319	643.01282	-18.03390	592.41345	-1005.08252	
5319	53.180	-712.12128	-22.32978	-580.29053	702.37585	-10.88479	-495.44257	-784.04401	23.25700	637.73480	784.94189	30.02011	642.82294	-17.85177	591.71490	-1005.38574	
5320	53.190	-711.98511	-22.68737	-580.35150	702.66425	-11.42435	-495.42932	-783.68433	23.41146	637.59259	785.24573	30.50964	642.79309	-17.51975	591.18347	-1005.60040	
5321	53.200	-711.82471	-23.01210	-580.41058	702.83246	-11.88435	-495.60840	-783.72864	23.75670	637.37219	785.49445	30.76491	642.70709	-17.47356	590.32300	-1005.92896	
5322	53.210	-711.50732	-23.55924	-580.49237	702.99731	-12.06641	-495.68692	-783.43555	24.21605	637.23877	785.94342	31.16936	642.40247	-17.66913	589.50293	-1006.48718	
5323	53.220	-711.21777	-24.14025	-580.56140	703.11768	-12.44397	-495.77618	-783.12457	24.65670	637.04010	786.02850	31.62835	642.09802	-16.79010	588.53955	-1007.64722	
